name D:\school\WTK\thesis\model\3dpredictsim\Results\Batchsim_tmt_linear_v2\Pog_s1_tmt_aCst_d00_k800_ig24_act.mot
datacolumns 128
datarows 4
range 0.00000000 0.04138279
endheader
time	pelvis_tilt	pelvis_list	pelvis_rotation	pelvis_tx	pelvis_ty	pelvis_tz	hip_flexion_l	hip_adduction_l	hip_rotation_l	hip_flexion_r	hip_adduction_r	hip_rotation_r	knee_angle_l	knee_angle_r	ankle_angle_l	ankle_angle_r	subtalar_angle_l	subtalar_angle_r	tmt_angle_l	tmt_angle_r	mtp_angle_l	mtp_angle_r	lumbar_extension	lumbar_bending	lumbar_rotation	arm_flex_l	arm_add_l	arm_rot_l	arm_flex_r	arm_add_r	arm_rot_r	elbow_flex_l	elbow_flex_r	pro_sup_l	pro_sup_r	glut_med1_l/activation	glut_med2_l/activation	glut_med3_l/activation	glut_min1_l/activation	glut_min2_l/activation	glut_min3_l/activation	semimem_l/activation	semiten_l/activation	bifemlh_l/activation	bifemsh_l/activation	sar_l/activation	add_long_l/activation	add_brev_l/activation	add_mag1_l/activation	add_mag2_l/activation	add_mag3_l/activation	tfl_l/activation	pect_l/activation	grac_l/activation	glut_max1_l/activation	glut_max2_l/activation	glut_max3_l/activation	iliacus_l/activation	psoas_l/activation	quad_fem_l/activation	gem_l/activation	peri_l/activation	rect_fem_l/activation	vas_med_l/activation	vas_int_l/activation	vas_lat_l/activation	med_gas_l/activation	lat_gas_l/activation	soleus_l/activation	tib_post_l/activation	flex_dig_l/activation	flex_hal_l/activation	tib_ant_l/activation	per_brev_l/activation	per_long_l/activation	per_tert_l/activation	ext_dig_l/activation	ext_hal_l/activation	ercspn_l/activation	intobl_l/activation	extobl_l/activation	glut_med1_r/activation	glut_med2_r/activation	glut_med3_r/activation	glut_min1_r/activation	glut_min2_r/activation	glut_min3_r/activation	semimem_r/activation	semiten_r/activation	bifemlh_r/activation	bifemsh_r/activation	sar_r/activation	add_long_r/activation	add_brev_r/activation	add_mag1_r/activation	add_mag2_r/activation	add_mag3_r/activation	tfl_r/activation	pect_r/activation	grac_r/activation	glut_max1_r/activation	glut_max2_r/activation	glut_max3_r/activation	iliacus_r/activation	psoas_r/activation	quad_fem_r/activation	gem_r/activation	peri_r/activation	rect_fem_r/activation	vas_med_r/activation	vas_int_r/activation	vas_lat_r/activation	med_gas_r/activation	lat_gas_r/activation	soleus_r/activation	tib_post_r/activation	flex_dig_r/activation	flex_hal_r/activation	tib_ant_r/activation	per_brev_r/activation	per_long_r/activation	per_tert_r/activation	ext_dig_r/activation	ext_hal_r/activation	ercspn_r/activation	intobl_r/activation	extobl_r/activation	
          0.00000000	         -0.69875023	          2.61963626	          9.64103270	          0.00000000	          0.85437233	         -0.00128455	        -19.48724384	          0.17512875	          1.96886530	         30.06525515	         -3.65093553	         -0.52613251	        -18.38698621	        -10.29622582	        -20.76485759	          7.80377131	          4.53533107	          2.63451948	          1.02216842	          0.02787129	         40.68116120	         -0.04466822	          1.03650852	         -6.56439273	         -2.44639180	        -12.98482870	        -14.16819779	         11.86955265	          2.85916254	        -13.44990531	         12.99295650	         12.70294627	         19.64293064	         86.51662706	         86.51662706	          0.14475855	          0.05000193	          0.05000123	          0.14544080	          0.07314528	          0.05000379	          0.06866735	          0.06151067	          0.06160237	          0.06150583	          0.06589539	          0.27680527	          0.37153899	          0.12915459	          0.07009636	          0.05002632	          0.11328692	          0.12470467	          0.07565521	          0.05005382	          0.05005560	          0.05041502	          0.25524894	          0.43419291	          0.07562933	          0.05000876	          0.05000340	          0.21284647	          0.07216099	          0.07680334	          0.06237779	          0.06916739	          0.07543483	          0.12989465	          0.12911047	          0.11438927	          0.12554509	          0.19228061	          0.31858768	          0.19440868	          0.53870356	          0.44917866	          0.09024481	          0.05000018	          0.05000040	          0.09302166	          0.08990598	          0.05000486	          0.24494128	          0.06154990	          0.06149427	          0.05000913	          0.06149534	          0.06149709	          0.06149594	          0.06149532	          0.06838012	          0.09302035	          0.14075453	          0.18944683	          0.20670781	          0.16351171	          0.06742093	          0.07566628	          0.07564025	          0.05000287	          0.05000411	          0.21161886	          0.09667197	          0.09307484	          0.08812793	          0.05582839	          0.24837508	          0.05409656	          0.18480164	          0.20321642	          0.15888911	          0.06087369	          0.06049822	          0.06149520	          0.05000022	          0.05002817	          0.05289535	          0.56887606	          0.31731248	          0.19283860	          0.19959498	          0.63624400	          0.55316091	          0.05000017	          0.19501464	          0.11276417	
          0.01379426	         -0.69022165	          2.84442647	          9.54354024	          0.02429131	          0.85235185	         -0.00087245	        -19.45975420	         -0.00862010	          1.74682604	         29.54719532	         -3.53068058	         -0.35084958	        -20.33003469	        -11.30399266	        -23.79929299	          6.54092864	          5.05152945	          2.39503197	          0.79364243	          0.02069888	         39.33225537	          0.00941123	          1.32771760	         -6.31686634	         -2.54437785	        -12.89785956	        -14.30568721	         11.86316767	          0.63666004	        -13.46417185	         13.30212607	         12.43343027	         19.64362324	         86.51662706	         86.51662706	          0.11769956	          0.06148944	          0.06149487	          0.11825534	          0.05947527	          0.06146983	          0.10924196	          0.05001392	          0.05009108	          0.05000924	          0.05359276	          0.30459585	          0.30212584	          0.11570499	          0.05949738	          0.06147754	          0.09211127	          0.10140795	          0.06151437	          0.05004917	          0.05003690	          0.05005050	          0.20753593	          0.35303022	          0.06149518	          0.06149442	          0.05003092	          0.17305941	          0.07274108	          0.09302773	          0.09301451	          0.05623847	          0.06133608	          0.10561808	          0.10497608	          0.09300750	          0.10207734	          0.19177201	          0.28512280	          0.17655113	          0.51967227	          0.69829861	          0.37666512	          0.08941044	          0.05927686	          0.07563337	          0.18658877	          0.13845629	          0.29921772	          0.05004520	          0.05000228	          0.05001044	          0.05000049	          0.05000203	          0.05000091	          0.05000075	          0.05559979	          0.07563261	          0.11444375	          0.15403487	          0.16807116	          0.16346301	          0.05482265	          0.06152474	          0.06150183	          0.11208138	          0.13940874	          0.19402916	          0.07860132	          0.07567660	          0.19416752	          0.05002889	          0.20194817	          0.06367492	          0.31667157	          0.34613001	          0.27176073	          0.05000012	          0.05000030	          0.05000005	          0.05000168	          0.05002585	          0.05000468	          0.64034363	          0.31710301	          0.21586310	          0.56621469	          0.61677566	          0.44975974	          0.05000023	          0.15856087	          0.09168535	
          0.02758853	         -0.67471393	          3.03874711	          9.39965555	          0.04837531	          0.84991272	         -0.00045835	        -19.20301546	         -0.18380337	          1.58584514	         28.87564031	         -3.39120064	         -0.14600749	        -22.71532880	        -12.77451153	        -25.96796259	          5.49585886	          5.53683666	          2.15465058	          0.57291927	         -0.00499317	         35.73426586	         -0.21201214	          1.59213749	         -6.01335422	         -2.62554042	        -12.75105340	        -14.42111553	         11.80356918	         -1.53164595	        -13.49683280	         13.71529816	         12.15044943	         19.53204790	         86.51662706	         86.51662706	          0.18504140	          0.05000034	          0.05000019	          0.17345480	          0.05000265	          0.05000073	          0.15607237	          0.05000098	          0.05000222	          0.05000098	          0.05720727	          0.27866151	          0.27239740	          0.09407852	          0.05001194	          0.05000366	          0.07489609	          0.08246004	          0.05001643	          0.05000482	          0.05000316	          0.05000296	          0.16874206	          0.32900135	          0.05000049	          0.05000115	          0.05000042	          0.14070969	          0.07562461	          0.07564013	          0.07562870	          0.07889449	          0.06149899	          0.15525941	          0.08535310	          0.07562256	          0.08299640	          0.27835244	          0.30598161	          0.17249637	          0.69997176	          0.56776842	          0.30625586	          0.11942237	          0.05000005	          0.06149543	          0.26793090	          0.35655388	          0.50112492	          0.10699109	          0.26132686	          0.28881058	          0.05742354	          0.05000639	          0.05935889	          0.05001860	          0.06147529	          0.06149490	          0.09305110	          0.12524178	          0.13665474	          0.15940192	          0.05000234	          0.05002575	          0.05000671	          0.26370419	          0.22412387	          0.20237684	          0.06390856	          0.06153056	          0.18443842	          0.08522864	          0.32445049	          0.05177239	          0.25747709	          0.28142899	          0.22096131	          0.05000030	          0.05000057	          0.05000010	          0.05000007	          0.05000166	          0.05000135	          0.75471670	          0.31735469	          0.17843914	          0.77402469	          0.79540133	          0.60163420	          0.05000044	          0.12892137	          0.07454676	
          0.04138279	         -0.65688840	          3.18101370	          9.20644351	          0.07169896	          0.84766874	          0.00002665	        -18.63467216	         -0.37072074	          1.48260407	         28.31174696	         -3.20414164	          0.01951588	        -25.49601578	        -14.37629253	        -27.55387016	          4.44326854	          6.02714174	          1.89112058	          0.35606871	         -0.03350999	         30.09788925	         -0.24052855	          1.79724532	         -5.64315076	         -2.68743314	        -12.41657623	        -14.48060486	         11.70882237	         -3.54992192	        -13.52324668	         14.28166407	         11.75315505	         19.25523314	         86.51662706	         86.51662706	          0.15045214	          0.05000049	          0.05000021	          0.14103195	          0.05000283	          0.05000112	          0.21138649	          0.05000077	          0.05000297	          0.05000020	          0.05000108	          0.24460833	          0.27776582	          0.15310058	          0.11481036	          0.11443640	          0.06089728	          0.06704759	          0.05000086	          0.05001284	          0.05001184	          0.05002276	          0.13719946	          0.26750220	          0.05000043	          0.05000116	          0.05000053	          0.11440705	          0.06150371	          0.06150387	          0.06149781	          0.06414768	          0.05000373	          0.12623785	          0.06939827	          0.06148925	          0.06748239	          0.29959060	          0.24883396	          0.15086779	          0.56916403	          0.74822407	          0.29816325	          0.15751922	          0.05000007	          0.05000035	          0.33037088	          0.51087666	          0.66801881	          0.23752022	          0.35038731	          0.42319710	          0.05000073	          0.06149279	          0.05000366	          0.05000567	          0.05000139	          0.05000080	          0.07565752	          0.10183175	          0.11111368	          0.14710496	          0.05000106	          0.05000423	          0.06149447	          0.35560459	          0.28376939	          0.21276120	          0.05196231	          0.05002884	          0.14996897	          0.07585365	          0.30947666	          0.05000026	          0.42899449	          0.46706041	          0.36306059	          0.05000008	          0.05000019	          0.05000002	          0.12285437	          0.05000362	          0.05000213	          0.87222273	          0.25803207	          0.14508379	          0.62933760	          0.64671848	          0.63877369	          0.07259597	          0.10482229	          0.06061190	
